<?xml version="1.0" encoding="UTF-8" standalone="no"?>
<!DOCTYPE svg PUBLIC "-//W3C//DTD SVG 1.1//EN"
 "http://www.w3.org/Graphics/SVG/1.1/DTD/svg11.dtd">
<!-- Generated by graphviz version 2.47.3 (20210619.1520)
 -->
<!-- Title: dependencies Pages: 1 -->
<svg width="2877pt" height="247pt"
 viewBox="0.00 0.00 2877.00 246.80" xmlns="http://www.w3.org/2000/svg" xmlns:xlink="http://www.w3.org/1999/xlink">
<g id="graph0" class="graph" transform="scale(1 1) rotate(0) translate(4 242.8)">
<title>dependencies</title>
<polygon fill="white" stroke="transparent" points="-4,4 -4,-242.8 2873,-242.8 2873,4 -4,4"/>
<text text-anchor="middle" x="1434.5" y="-8.2" font-family="sans-serif" font-size="14.00">dependencies</text>
<g id="clust1" class="cluster">
<title>cluster_AppModule</title>
<polygon fill="none" stroke="black" stroke-dasharray="1,5" points="8,-32.8 8,-230.8 2375,-230.8 2375,-32.8 8,-32.8"/>
</g>
<g id="clust2" class="cluster">
<title>cluster_AppModule_declarations</title>
<polygon fill="none" stroke="black" points="168,-40.8 168,-92.8 2367,-92.8 2367,-40.8 168,-40.8"/>
</g>
<g id="clust18" class="cluster">
<title>cluster_AppModule_imports</title>
<polygon fill="none" stroke="black" points="16,-40.8 16,-92.8 160,-92.8 160,-40.8 16,-40.8"/>
</g>
<g id="clust20" class="cluster">
<title>cluster_AppModule_bootstrap</title>
<polygon fill="none" stroke="black" points="1177,-170.8 1177,-222.8 1301,-222.8 1301,-170.8 1177,-170.8"/>
</g>
<g id="clust28" class="cluster">
<title>cluster_SettingsModule</title>
<polygon fill="none" stroke="black" stroke-dasharray="1,5" points="2383,-32.8 2383,-157.8 2861,-157.8 2861,-32.8 2383,-32.8"/>
</g>
<g id="clust29" class="cluster">
<title>cluster_SettingsModule_declarations</title>
<polygon fill="none" stroke="black" points="2565,-40.8 2565,-92.8 2853,-92.8 2853,-40.8 2565,-40.8"/>
</g>
<g id="clust32" class="cluster">
<title>cluster_SettingsModule_imports</title>
<polygon fill="none" stroke="black" points="2391,-40.8 2391,-92.8 2557,-92.8 2557,-40.8 2391,-40.8"/>
</g>
<!-- AboutComponent -->
<g id="node1" class="node">
<title>AboutComponent</title>
<polygon fill="#ffffb3" stroke="black" points="2359.33,-84.8 2242.67,-84.8 2242.67,-48.8 2359.33,-48.8 2359.33,-84.8"/>
<text text-anchor="middle" x="2301" y="-62.6" font-family="Times,serif" font-size="14.00">AboutComponent</text>
</g>
<!-- AppModule -->
<g id="node16" class="node">
<title>AppModule</title>
<polygon fill="#8dd3c7" stroke="black" points="1280.66,-149.8 1277.66,-153.8 1256.66,-153.8 1253.66,-149.8 1197.34,-149.8 1197.34,-113.8 1280.66,-113.8 1280.66,-149.8"/>
<text text-anchor="middle" x="1239" y="-127.6" font-family="Times,serif" font-size="14.00">AppModule</text>
</g>
<!-- AboutComponent&#45;&gt;AppModule -->
<g id="edge1" class="edge">
<title>AboutComponent&#45;&gt;AppModule</title>
<path fill="none" stroke="black" d="M2301,-84.96C2301,-107.15 2301,-141.8 2301,-141.8 2301,-141.8 1290.96,-141.8 1290.96,-141.8"/>
<polygon fill="black" stroke="black" points="1290.96,-138.3 1280.96,-141.8 1290.96,-145.3 1290.96,-138.3"/>
</g>
<!-- AppComponent -->
<g id="node2" class="node">
<title>AppComponent</title>
<polygon fill="#ffffb3" stroke="black" points="2224.94,-84.8 2119.06,-84.8 2119.06,-48.8 2224.94,-48.8 2224.94,-84.8"/>
<text text-anchor="middle" x="2172" y="-62.6" font-family="Times,serif" font-size="14.00">AppComponent</text>
</g>
<!-- AppComponent&#45;&gt;AppModule -->
<g id="edge2" class="edge">
<title>AppComponent&#45;&gt;AppModule</title>
<path fill="none" stroke="black" d="M2172,-85.08C2172,-106.12 2172,-137.8 2172,-137.8 2172,-137.8 1290.9,-137.8 1290.9,-137.8"/>
<polygon fill="black" stroke="black" points="1290.9,-134.3 1280.9,-137.8 1290.9,-141.3 1290.9,-134.3"/>
</g>
<!-- ContactComponent -->
<g id="node3" class="node">
<title>ContactComponent</title>
<polygon fill="#ffffb3" stroke="black" points="2101.38,-84.8 1976.62,-84.8 1976.62,-48.8 2101.38,-48.8 2101.38,-84.8"/>
<text text-anchor="middle" x="2039" y="-62.6" font-family="Times,serif" font-size="14.00">ContactComponent</text>
</g>
<!-- ContactComponent&#45;&gt;AppModule -->
<g id="edge3" class="edge">
<title>ContactComponent&#45;&gt;AppModule</title>
<path fill="none" stroke="black" d="M2039,-85.11C2039,-104.95 2039,-133.8 2039,-133.8 2039,-133.8 1290.89,-133.8 1290.89,-133.8"/>
<polygon fill="black" stroke="black" points="1290.89,-130.3 1280.89,-133.8 1290.89,-137.3 1290.89,-130.3"/>
</g>
<!-- EmbedVideoComponent -->
<g id="node4" class="node">
<title>EmbedVideoComponent</title>
<polygon fill="#ffffb3" stroke="black" points="1958.7,-84.8 1803.3,-84.8 1803.3,-48.8 1958.7,-48.8 1958.7,-84.8"/>
<text text-anchor="middle" x="1881" y="-62.6" font-family="Times,serif" font-size="14.00">EmbedVideoComponent</text>
</g>
<!-- EmbedVideoComponent&#45;&gt;AppModule -->
<g id="edge4" class="edge">
<title>EmbedVideoComponent&#45;&gt;AppModule</title>
<path fill="none" stroke="black" d="M1881,-85.02C1881,-103.63 1881,-129.8 1881,-129.8 1881,-129.8 1291.12,-129.8 1291.12,-129.8"/>
<polygon fill="black" stroke="black" points="1291.12,-126.3 1281.12,-129.8 1291.12,-133.3 1291.12,-126.3"/>
</g>
<!-- GenresComponent -->
<g id="node5" class="node">
<title>GenresComponent</title>
<polygon fill="#ffffb3" stroke="black" points="1785.47,-84.8 1664.53,-84.8 1664.53,-48.8 1785.47,-48.8 1785.47,-84.8"/>
<text text-anchor="middle" x="1725" y="-62.6" font-family="Times,serif" font-size="14.00">GenresComponent</text>
</g>
<!-- GenresComponent&#45;&gt;AppModule -->
<g id="edge5" class="edge">
<title>GenresComponent&#45;&gt;AppModule</title>
<path fill="none" stroke="black" d="M1725,-84.82C1725,-102.17 1725,-125.8 1725,-125.8 1725,-125.8 1290.86,-125.8 1290.86,-125.8"/>
<polygon fill="black" stroke="black" points="1290.86,-122.3 1280.86,-125.8 1290.86,-129.3 1290.86,-122.3"/>
</g>
<!-- HeaderComponent -->
<g id="node6" class="node">
<title>HeaderComponent</title>
<polygon fill="#ffffb3" stroke="black" points="1646.74,-84.8 1525.26,-84.8 1525.26,-48.8 1646.74,-48.8 1646.74,-84.8"/>
<text text-anchor="middle" x="1586" y="-62.6" font-family="Times,serif" font-size="14.00">HeaderComponent</text>
</g>
<!-- HeaderComponent&#45;&gt;AppModule -->
<g id="edge6" class="edge">
<title>HeaderComponent&#45;&gt;AppModule</title>
<path fill="none" stroke="black" d="M1586,-84.81C1586,-100.85 1586,-121.8 1586,-121.8 1586,-121.8 1290.86,-121.8 1290.86,-121.8"/>
<polygon fill="black" stroke="black" points="1290.86,-118.3 1280.86,-121.8 1290.86,-125.3 1290.86,-118.3"/>
</g>
<!-- HomeComponent -->
<g id="node7" class="node">
<title>HomeComponent</title>
<polygon fill="#ffffb3" stroke="black" points="1506.55,-84.8 1391.45,-84.8 1391.45,-48.8 1506.55,-48.8 1506.55,-84.8"/>
<text text-anchor="middle" x="1449" y="-62.6" font-family="Times,serif" font-size="14.00">HomeComponent</text>
</g>
<!-- HomeComponent&#45;&gt;AppModule -->
<g id="edge7" class="edge">
<title>HomeComponent&#45;&gt;AppModule</title>
<path fill="none" stroke="black" d="M1449,-84.92C1449,-99.58 1449,-117.8 1449,-117.8 1449,-117.8 1290.74,-117.8 1290.74,-117.8"/>
<polygon fill="black" stroke="black" points="1290.74,-114.3 1280.74,-117.8 1290.74,-121.3 1290.74,-114.3"/>
</g>
<!-- LoginComponent -->
<g id="node8" class="node">
<title>LoginComponent</title>
<polygon fill="#ffffb3" stroke="black" points="1373.28,-84.8 1258.72,-84.8 1258.72,-48.8 1373.28,-48.8 1373.28,-84.8"/>
<text text-anchor="middle" x="1316" y="-62.6" font-family="Times,serif" font-size="14.00">LoginComponent</text>
</g>
<!-- LoginComponent&#45;&gt;AppModule -->
<g id="edge8" class="edge">
<title>LoginComponent&#45;&gt;AppModule</title>
<path fill="none" stroke="black" d="M1269.72,-84.91C1269.72,-84.91 1269.72,-103.79 1269.72,-103.79"/>
<polygon fill="black" stroke="black" points="1266.22,-103.79 1269.72,-113.79 1273.22,-103.79 1266.22,-103.79"/>
</g>
<!-- MovieDetailsComponent -->
<g id="node9" class="node">
<title>MovieDetailsComponent</title>
<polygon fill="#ffffb3" stroke="black" points="1240.54,-84.8 1083.46,-84.8 1083.46,-48.8 1240.54,-48.8 1240.54,-84.8"/>
<text text-anchor="middle" x="1162" y="-62.6" font-family="Times,serif" font-size="14.00">MovieDetailsComponent</text>
</g>
<!-- MovieDetailsComponent&#45;&gt;AppModule -->
<g id="edge9" class="edge">
<title>MovieDetailsComponent&#45;&gt;AppModule</title>
<path fill="none" stroke="black" d="M1218.97,-84.91C1218.97,-84.91 1218.97,-103.79 1218.97,-103.79"/>
<polygon fill="black" stroke="black" points="1215.47,-103.79 1218.97,-113.79 1222.47,-103.79 1215.47,-103.79"/>
</g>
<!-- MoviesComponent -->
<g id="node10" class="node">
<title>MoviesComponent</title>
<polygon fill="#ffffb3" stroke="black" points="1065.83,-84.8 942.17,-84.8 942.17,-48.8 1065.83,-48.8 1065.83,-84.8"/>
<text text-anchor="middle" x="1004" y="-62.6" font-family="Times,serif" font-size="14.00">MoviesComponent</text>
</g>
<!-- MoviesComponent&#45;&gt;AppModule -->
<g id="edge10" class="edge">
<title>MoviesComponent&#45;&gt;AppModule</title>
<path fill="none" stroke="black" d="M1004,-84.99C1004,-99.98 1004,-118.8 1004,-118.8 1004,-118.8 1187.26,-118.8 1187.26,-118.8"/>
<polygon fill="black" stroke="black" points="1187.26,-122.3 1197.26,-118.8 1187.26,-115.3 1187.26,-122.3"/>
</g>
<!-- NavBarComponent -->
<g id="node11" class="node">
<title>NavBarComponent</title>
<polygon fill="#ffffb3" stroke="black" points="924.37,-84.8 799.63,-84.8 799.63,-48.8 924.37,-48.8 924.37,-84.8"/>
<text text-anchor="middle" x="862" y="-62.6" font-family="Times,serif" font-size="14.00">NavBarComponent</text>
</g>
<!-- NavBarComponent&#45;&gt;AppModule -->
<g id="edge11" class="edge">
<title>NavBarComponent&#45;&gt;AppModule</title>
<path fill="none" stroke="black" d="M862,-84.83C862,-101.2 862,-122.8 862,-122.8 862,-122.8 1187.21,-122.8 1187.21,-122.8"/>
<polygon fill="black" stroke="black" points="1187.21,-126.3 1197.21,-122.8 1187.21,-119.3 1187.21,-126.3"/>
</g>
<!-- NotfoundComponent -->
<g id="node12" class="node">
<title>NotfoundComponent</title>
<polygon fill="#ffffb3" stroke="black" points="781.49,-84.8 646.51,-84.8 646.51,-48.8 781.49,-48.8 781.49,-84.8"/>
<text text-anchor="middle" x="714" y="-62.6" font-family="Times,serif" font-size="14.00">NotfoundComponent</text>
</g>
<!-- NotfoundComponent&#45;&gt;AppModule -->
<g id="edge12" class="edge">
<title>NotfoundComponent&#45;&gt;AppModule</title>
<path fill="none" stroke="black" d="M714,-85.1C714,-103.07 714,-127.8 714,-127.8 714,-127.8 1186.92,-127.8 1186.92,-127.8"/>
<polygon fill="black" stroke="black" points="1186.92,-131.3 1196.92,-127.8 1186.92,-124.3 1186.92,-131.3"/>
</g>
<!-- PersondetialisComponent -->
<g id="node13" class="node">
<title>PersondetialisComponent</title>
<polygon fill="#ffffb3" stroke="black" points="628.87,-84.8 469.13,-84.8 469.13,-48.8 628.87,-48.8 628.87,-84.8"/>
<text text-anchor="middle" x="549" y="-62.6" font-family="Times,serif" font-size="14.00">PersondetialisComponent</text>
</g>
<!-- PersondetialisComponent&#45;&gt;AppModule -->
<g id="edge13" class="edge">
<title>PersondetialisComponent&#45;&gt;AppModule</title>
<path fill="none" stroke="black" d="M549,-84.91C549,-104.14 549,-131.8 549,-131.8 549,-131.8 1187.13,-131.8 1187.13,-131.8"/>
<polygon fill="black" stroke="black" points="1187.13,-135.3 1197.13,-131.8 1187.13,-128.3 1187.13,-135.3"/>
</g>
<!-- SignupComponent -->
<g id="node14" class="node">
<title>SignupComponent</title>
<polygon fill="#ffffb3" stroke="black" points="451.51,-84.8 330.49,-84.8 330.49,-48.8 451.51,-48.8 451.51,-84.8"/>
<text text-anchor="middle" x="391" y="-62.6" font-family="Times,serif" font-size="14.00">SignupComponent</text>
</g>
<!-- SignupComponent&#45;&gt;AppModule -->
<g id="edge14" class="edge">
<title>SignupComponent&#45;&gt;AppModule</title>
<path fill="none" stroke="black" d="M391,-84.83C391,-105.57 391,-136.8 391,-136.8 391,-136.8 1187.24,-136.8 1187.24,-136.8"/>
<polygon fill="black" stroke="black" points="1187.24,-140.3 1197.24,-136.8 1187.24,-133.3 1187.24,-140.3"/>
</g>
<!-- TvDetailsComponent -->
<g id="node15" class="node">
<title>TvDetailsComponent</title>
<polygon fill="#ffffb3" stroke="black" points="312.04,-84.8 175.96,-84.8 175.96,-48.8 312.04,-48.8 312.04,-84.8"/>
<text text-anchor="middle" x="244" y="-62.6" font-family="Times,serif" font-size="14.00">TvDetailsComponent</text>
</g>
<!-- TvDetailsComponent&#45;&gt;AppModule -->
<g id="edge15" class="edge">
<title>TvDetailsComponent&#45;&gt;AppModule</title>
<path fill="none" stroke="black" d="M244,-85.09C244,-107.01 244,-140.8 244,-140.8 244,-140.8 1187.2,-140.8 1187.2,-140.8"/>
<polygon fill="black" stroke="black" points="1187.2,-144.3 1197.2,-140.8 1187.2,-137.3 1187.2,-144.3"/>
</g>
<!-- AppComponent  -->
<g id="node18" class="node">
<title>AppComponent </title>
<polygon fill="#80b1d3" stroke="black" points="1293.44,-214.8 1184.56,-214.8 1184.56,-178.8 1293.44,-178.8 1293.44,-214.8"/>
<text text-anchor="middle" x="1239" y="-192.6" font-family="Times,serif" font-size="14.00">AppComponent </text>
</g>
<!-- AppModule&#45;&gt;AppComponent  -->
<g id="edge17" class="edge">
<title>AppModule&#45;&gt;AppComponent </title>
<path fill="none" stroke="black" stroke-dasharray="1,5" d="M1239,-149.91C1239,-149.91 1239,-168.79 1239,-168.79"/>
<polygon fill="black" stroke="black" points="1235.5,-168.79 1239,-178.79 1242.5,-168.79 1235.5,-168.79"/>
</g>
<!-- AppRoutingModule -->
<g id="node17" class="node">
<title>AppRoutingModule</title>
<polygon fill="#8dd3c7" stroke="black" points="152.27,-84.8 149.27,-88.8 128.27,-88.8 125.27,-84.8 23.73,-84.8 23.73,-48.8 152.27,-48.8 152.27,-84.8"/>
<text text-anchor="middle" x="88" y="-62.6" font-family="Times,serif" font-size="14.00">AppRoutingModule</text>
</g>
<!-- AppRoutingModule&#45;&gt;AppModule -->
<g id="edge16" class="edge">
<title>AppRoutingModule&#45;&gt;AppModule</title>
<path fill="none" stroke="black" d="M88,-85.12C88,-108.46 88,-145.8 88,-145.8 88,-145.8 1187.01,-145.8 1187.01,-145.8"/>
<polygon fill="black" stroke="black" points="1187.01,-149.3 1197.01,-145.8 1187.01,-142.3 1187.01,-149.3"/>
</g>
<!-- PasswordComponent -->
<g id="node19" class="node">
<title>PasswordComponent</title>
<polygon fill="#ffffb3" stroke="black" points="2845.49,-84.8 2710.51,-84.8 2710.51,-48.8 2845.49,-48.8 2845.49,-84.8"/>
<text text-anchor="middle" x="2778" y="-62.6" font-family="Times,serif" font-size="14.00">PasswordComponent</text>
</g>
<!-- SettingsModule -->
<g id="node21" class="node">
<title>SettingsModule</title>
<polygon fill="#8dd3c7" stroke="black" points="2685.16,-149.8 2682.16,-153.8 2661.16,-153.8 2658.16,-149.8 2580.84,-149.8 2580.84,-113.8 2685.16,-113.8 2685.16,-149.8"/>
<text text-anchor="middle" x="2633" y="-127.6" font-family="Times,serif" font-size="14.00">SettingsModule</text>
</g>
<!-- PasswordComponent&#45;&gt;SettingsModule -->
<g id="edge18" class="edge">
<title>PasswordComponent&#45;&gt;SettingsModule</title>
<path fill="none" stroke="black" d="M2778,-84.91C2778,-104.14 2778,-131.8 2778,-131.8 2778,-131.8 2695.35,-131.8 2695.35,-131.8"/>
<polygon fill="black" stroke="black" points="2695.35,-128.3 2685.35,-131.8 2695.35,-135.3 2695.35,-128.3"/>
</g>
<!-- ProfileComponent -->
<g id="node20" class="node">
<title>ProfileComponent</title>
<polygon fill="#ffffb3" stroke="black" points="2692.93,-84.8 2573.07,-84.8 2573.07,-48.8 2692.93,-48.8 2692.93,-84.8"/>
<text text-anchor="middle" x="2633" y="-62.6" font-family="Times,serif" font-size="14.00">ProfileComponent</text>
</g>
<!-- ProfileComponent&#45;&gt;SettingsModule -->
<g id="edge19" class="edge">
<title>ProfileComponent&#45;&gt;SettingsModule</title>
<path fill="none" stroke="black" d="M2633,-84.91C2633,-84.91 2633,-103.79 2633,-103.79"/>
<polygon fill="black" stroke="black" points="2629.5,-103.79 2633,-113.79 2636.5,-103.79 2629.5,-103.79"/>
</g>
<!-- SettingsRoutingModule -->
<g id="node22" class="node">
<title>SettingsRoutingModule</title>
<polygon fill="#8dd3c7" stroke="black" points="2548.78,-84.8 2545.78,-88.8 2524.78,-88.8 2521.78,-84.8 2399.22,-84.8 2399.22,-48.8 2548.78,-48.8 2548.78,-84.8"/>
<text text-anchor="middle" x="2474" y="-62.6" font-family="Times,serif" font-size="14.00">SettingsRoutingModule</text>
</g>
<!-- SettingsRoutingModule&#45;&gt;SettingsModule -->
<g id="edge20" class="edge">
<title>SettingsRoutingModule&#45;&gt;SettingsModule</title>
<path fill="none" stroke="black" d="M2474,-85.12C2474,-108.46 2474,-145.8 2474,-145.8 2474,-145.8 2570.5,-145.8 2570.5,-145.8"/>
<polygon fill="black" stroke="black" points="2570.5,-149.3 2580.5,-145.8 2570.5,-142.3 2570.5,-149.3"/>
</g>
</g>
</svg>
